<?xml version="1.0" encoding="utf-8"?>
<!-- Generator: Adobe Illustrator 26.5.0, SVG Export Plug-In . SVG Version: 6.00 Build 0)  -->
<svg version="1.1" id="svg2" xmlns:inkscape="http://www.inkscape.org/namespaces/inkscape" xmlns:svg="http://www.w3.org/2000/svg"
	 xmlns="http://www.w3.org/2000/svg" xmlns:xlink="http://www.w3.org/1999/xlink" x="0px" y="0px" viewBox="0 0 442 88"
	  xml:space="preserve">
<style type="text/css">
	.st0{clip-path:url(#SVGID_00000144308771893049810370000011280807473709439129_);}
	.st1{fill:#6EC72D;}
	.st2{fill:#231F20;}
</style>
<defs>
	<inkscape:perspective  id="perspective10"></inkscape:perspective>
	<inkscape:perspective  id="perspective2395"></inkscape:perspective>
</defs>
<g id="layer1" transform="translate(-83.26196,-844.08145)">
	<g id="g2397" transform="matrix(1.25,0,0,-1.25,-176.96804,1762.9502)">
		<g id="g2399">
			<g>
				<defs>
					<rect id="SVGID_1_" x="-148.8" y="-105.2" width="1488.2" height="1052.4"/>
				</defs>
				<clipPath id="SVGID_00000031924528578314760320000010029407002666700451_">
					<use xlink:href="#SVGID_1_"/>
				</clipPath>
				<g id="g2401" style="clip-path:url(#SVGID_00000031924528578314760320000010029407002666700451_);">
					<path id="path2407" class="st1" d="M279.9,712.1v-26.2c0-3.7-1.9-5.5-5.5-5.5h-9.6c-3.5,0-5.5,1.7-5.5,5.5v26.2h-28.1v15h-7.3
						v-15h-7.7v-7.4h7.7V686c0-8,5.4-13,12.8-13h3.8l0.2,7.4h-4c-3.5,0-5.5,1.9-5.5,5.5v18.7H252v-18.8c0-7.9,5.5-12.8,12.8-12.8
						h9.6c7.3,0,12.8,4.9,12.8,12.8v26.2H279.9z"/>
					<path id="path2409" class="st2" d="M308,699.1c-2.3,0-3.2,1.5-3.2,3.7v7.9h-2.5v1.2h2.5v3.5l1.3,0.3v-3.8h3.9v-1.2H306v-7.9
						c0-1.5,0.4-2.5,2.1-2.5c0.7,0,1.3,0.1,2,0.2v-1.1C309.4,699.3,308.7,699.1,308,699.1"/>
					<path id="path2411" class="st2" d="M323,705.3h-9.6c0-1.5,0.5-2.8,1.3-3.8c0.7-0.8,1.7-1.3,3-1.3c1.1,0,2.1,0.4,2.7,1.1
						c0.5,0.5,0.8,1,1,1.8h1.3c-0.2-1.1-0.7-2-1.4-2.6c-0.9-0.9-2.2-1.5-3.6-1.5c-1.8,0-3.1,0.8-4,1.8c-1,1.2-1.6,2.9-1.6,4.8
						c0,1.6,0.3,3.1,1.2,4.5c1.1,1.4,2.5,2.2,4.3,2.2c3.4,0,5.4-2.9,5.4-6.1C323,705.8,323,705.6,323,705.3 M317.6,711
						c-2.6,0-4.2-2.1-4.2-4.6h8.3C321.7,708.8,320.2,711,317.6,711"/>
					<path id="path2413" class="st2" d="M331.2,699c-1.6,0-2.8,0.6-3.7,1.5c-1.3,1.3-1.8,3-1.8,5.1c0,2.1,0.5,3.8,1.8,5.1
						c0.9,0.9,2.1,1.5,3.7,1.5c2.6,0,4.6-1.7,4.9-4.3h-1.3c-0.3,1.7-1.6,3-3.5,3c-1.2,0-2.1-0.4-2.8-1.1c-1.1-1.2-1.4-2.7-1.4-4.3
						c0-1.6,0.3-3.1,1.4-4.3c0.7-0.7,1.6-1.1,2.8-1.1c1.9,0,3.3,1.4,3.6,3.1h1.3C335.8,700.8,333.8,699,331.2,699"/>
					<path id="path2415" class="st2" d="M348.2,699.3v8.2c0,2.2-1,3.5-3.2,3.5c-3.1,0-4.2-2.7-4.2-5.4v-6.3h-1.3v18.2h1.3v-7.9
						c0.7,1.6,2.5,2.6,4.3,2.6c2.9,0,4.4-1.8,4.4-4.6v-8.3H348.2z"/>
					<path id="path2417" class="st2" d="M362.9,699.3v8.2c0,2.2-1,3.4-3.2,3.4c-3.1,0-4.2-2.7-4.2-5.4v-6.3h-1.3v12.6h1.1l0.2-2.3
						c0.7,1.6,2.5,2.6,4.3,2.6c2.9,0,4.4-1.8,4.4-4.6v-8.3H362.9z"/>
					<path id="path2419" class="st2" d="M368.8,717.1h1.8v-1.8h-1.8V717.1z M369,711.9h1.3v-12.6H369V711.9z"/>
					<path id="path2421" class="st2" d="M383.5,700.5c-0.9-1-2.4-1.5-4.1-1.5c-1.7,0-3.2,0.5-4.1,1.6c-0.7,0.8-1,1.5-1.1,2.5h1.3
						c0.1-0.8,0.4-1.4,0.9-1.9c0.7-0.7,1.8-1,3-1c1.3,0,2.3,0.3,3,0.9c0.5,0.5,0.7,0.9,0.7,1.6c0,1.1-0.8,2.1-2.3,2.3l-2.4,0.3
						c-1,0.1-2.1,0.5-2.8,1.3c-0.5,0.5-0.7,1.2-0.7,2c0,1,0.4,1.8,1.1,2.4c0.9,0.8,2.1,1.2,3.4,1.2c1.5,0,2.9-0.5,3.8-1.5
						c0.6-0.7,0.9-1.5,1-2.3h-1.3c0,0.4-0.2,1-0.6,1.5c-0.6,0.7-1.6,1.1-2.9,1.1c-1,0-1.7-0.2-2.3-0.6c-0.6-0.5-1-1.1-1-1.7
						c0-1.1,0.5-1.9,2.4-2.1l2.4-0.3c2.4-0.3,3.5-1.9,3.5-3.5C384.4,701.8,384.1,701.1,383.5,700.5"/>
					<path id="path2423" class="st2" d="M392.7,699c-1.6,0-2.8,0.6-3.7,1.5c-1.3,1.3-1.8,3-1.8,5.1c0,2.1,0.5,3.8,1.8,5.1
						c0.9,0.9,2.1,1.5,3.7,1.5c2.6,0,4.6-1.7,4.9-4.3h-1.3c-0.3,1.7-1.6,3-3.6,3c-1.2,0-2.1-0.4-2.8-1.1c-1.1-1.2-1.4-2.7-1.4-4.3
						c0-1.6,0.3-3.1,1.4-4.3c0.7-0.7,1.6-1.1,2.8-1.1c1.9,0,3.3,1.4,3.6,3.1h1.3C397.3,700.8,395.3,699,392.7,699"/>
					<path id="path2425" class="st2" d="M409.7,699.3v8.2c0,2.2-1,3.5-3.2,3.5c-3.1,0-4.2-2.7-4.2-5.4v-6.3H401v18.2h1.3v-7.9
						c0.7,1.6,2.5,2.6,4.3,2.6c2.9,0,4.4-1.8,4.4-4.6v-8.3H409.7z"/>
					<path id="path2427" class="st2" d="M425.5,705.3h-9.6c0-1.5,0.5-2.8,1.3-3.8c0.7-0.8,1.7-1.3,3-1.3c1.1,0,2.1,0.4,2.7,1.1
						c0.5,0.5,0.8,1,1,1.8h1.3c-0.2-1.1-0.7-2-1.4-2.6c-0.9-0.9-2.2-1.5-3.6-1.5c-1.8,0-3.1,0.8-4,1.8c-1,1.2-1.6,2.9-1.6,4.8
						c0,1.6,0.3,3.1,1.2,4.5c1.1,1.4,2.5,2.2,4.3,2.2c3.4,0,5.4-2.9,5.4-6.1C425.5,705.8,425.5,705.6,425.5,705.3 M420.1,711
						c-2.6,0-4.2-2.1-4.2-4.6h8.3C424.2,708.8,422.7,711,420.1,711"/>
					<path id="path2429" class="st2" d="M443.3,699.3l-0.2,2.3c-0.7-1.6-2.5-2.6-4.3-2.6c-2.9,0-4.4,1.8-4.4,4.6v8.3h1.3v-8.2
						c0-2.2,1-3.4,3.2-3.4c3.1,0,4.2,2.7,4.2,5.4v6.3h1.3v-12.6H443.3z"/>
					<path id="path2431" class="st2" d="M458,699.3v8.2c0,2.2-1,3.4-3.2,3.4c-3.1,0-4.2-2.7-4.2-5.4v-6.3h-1.3v12.6h1.1l0.2-2.3
						c0.7,1.6,2.5,2.6,4.3,2.6c2.9,0,4.4-1.8,4.4-4.6v-8.3H458z"/>
					<path id="path2433" class="st2" d="M463.9,717.1h1.8v-1.8h-1.8V717.1z M464.1,711.9h1.3v-12.6h-1.3V711.9z"/>
					<path id="path2435" class="st2" d="M474.7,699.3h-1.3l-5,12.6h1.4l4.2-10.8l4.1,10.8h1.3L474.7,699.3z"/>
					<path id="path2437" class="st2" d="M492,705.3h-9.6c0-1.5,0.5-2.8,1.3-3.8c0.7-0.8,1.7-1.3,3-1.3c1.1,0,2.1,0.4,2.7,1.1
						c0.5,0.5,0.8,1,1,1.8h1.3c-0.2-1.1-0.7-2-1.4-2.6c-0.9-0.9-2.2-1.5-3.6-1.5c-1.8,0-3.1,0.8-4,1.8c-1,1.2-1.6,2.9-1.6,4.8
						c0,1.6,0.2,3.1,1.2,4.5c1.1,1.4,2.5,2.2,4.3,2.2c3.4,0,5.4-2.9,5.4-6.1C492,705.8,492,705.6,492,705.3 M486.6,711
						c-2.6,0-4.2-2.1-4.2-4.6h8.3C490.7,708.8,489.2,711,486.6,711"/>
					<path id="path2439" class="st2" d="M501,710.8c-3.1,0-4-2.8-4-5.5v-6h-1.3v12.6h1.1l0.2-2.5c0.6,1.7,2.2,2.7,4,2.7
						c0.4,0,0.8,0,1.2-0.1v-1.3C501.9,710.8,501.4,710.8,501,710.8"/>
					<path id="path2441" class="st2" d="M513.2,700.5c-0.9-1-2.4-1.5-4.1-1.5c-1.7,0-3.2,0.5-4.1,1.6c-0.7,0.8-1,1.5-1.1,2.5h1.3
						c0.1-0.8,0.4-1.4,0.9-1.9c0.7-0.7,1.8-1,3-1c1.3,0,2.3,0.3,3,0.9c0.5,0.5,0.7,0.9,0.7,1.6c0,1.1-0.8,2.1-2.3,2.3l-2.4,0.3
						c-1,0.1-2.1,0.5-2.8,1.3c-0.5,0.5-0.7,1.2-0.7,2c0,1,0.4,1.8,1.1,2.4c0.9,0.8,2.1,1.2,3.4,1.2c1.5,0,2.9-0.5,3.8-1.5
						c0.6-0.7,0.9-1.5,1-2.3h-1.3c0,0.4-0.2,1-0.6,1.5c-0.6,0.7-1.6,1.1-2.9,1.1c-1,0-1.7-0.2-2.3-0.6c-0.6-0.5-1-1.1-1-1.7
						c0-1.1,0.5-1.9,2.4-2.1l2.4-0.3c2.4-0.3,3.5-1.9,3.5-3.5C514.1,701.8,513.8,701.1,513.2,700.5"/>
					<path id="path2443" class="st2" d="M517.9,717.1h1.8v-1.8h-1.8V717.1z M518.1,711.9h1.3v-12.6h-1.3V711.9z"/>
					<path id="path2445" class="st2" d="M528.4,699.1c-2.3,0-3.2,1.5-3.2,3.7v7.9h-2.5v1.2h2.5v3.5l1.3,0.3v-3.8h3.9v-1.2h-3.9v-7.9
						c0-1.5,0.4-2.5,2.1-2.5c0.7,0,1.3,0.1,2,0.2v-1.1C529.8,699.3,529.1,699.1,528.4,699.1"/>
					<path id="path2447" class="st2" d="M543.7,699.2c-1.6,0-2,1.1-2,2.5c-0.7-1.8-2.6-2.7-4.5-2.7c-2.4,0-4.3,1.5-4.3,3.9
						c0,2.2,1.7,3.6,4.2,3.8l4.6,0.3v1.2c0,2.1-1.4,2.9-3.3,2.9c-2,0-3.5-0.9-3.6-2.8h-1.3c0.2,2.5,2.2,4,4.9,4
						c1.7,0,3.6-0.6,4.3-2.3c0.3-0.8,0.3-1.6,0.3-2.4v-5.7c0-0.9,0.1-1.4,1-1.4c0.2,0,0.2,0,0.4,0v-1.1
						C544,699.2,544,699.2,543.7,699.2 M541.7,705.7l-4.5-0.3c-1.9-0.1-3.1-1.1-3.1-2.6c0-1.8,1.4-2.7,3.1-2.7c3.2,0,4.4,2.6,4.4,5
						V705.7z M535.3,716.5h1.5V715h-1.5V716.5z M540,716.5h1.5V715H540V716.5z"/>
					<path id="path2449" class="st2" d="M551.7,699.1c-2.3,0-3.2,1.5-3.2,3.7v7.9H546v1.2h2.5v3.5l1.3,0.3v-3.8h3.9v-1.2h-3.9v-7.9
						c0-1.5,0.4-2.5,2.1-2.5c0.7,0,1.3,0.1,2,0.2v-1.1C553.1,699.3,552.4,699.1,551.7,699.1"/>
					<path id="path2451" class="st2" d="M312.8,673l-0.1,2.2c-0.7-1.6-2.5-2.5-4.2-2.5c-1.4,0-2.5,0.5-3.3,1.2
						c-1.4,1.2-2.1,3.2-2.1,5.4c0,2.1,0.6,4.1,2,5.3c0.8,0.8,2,1.3,3.4,1.3c1.8,0,3.5-1,4.2-2.4v7.7h1.3V673H312.8z M311.1,683.7
						c-0.6,0.6-1.5,1-2.6,1c-1.2,0-2-0.4-2.7-1.1c-1-1.1-1.4-2.7-1.4-4.3c0-1.8,0.5-3.5,1.7-4.5c0.6-0.6,1.4-0.9,2.5-0.9
						c1.1,0,1.9,0.4,2.6,1c1.1,1.1,1.6,2.6,1.6,4.4C312.6,681.2,312.2,682.6,311.1,683.7"/>
					<path id="path2453" class="st2" d="M326.9,674.2c-0.9-0.9-2.1-1.5-3.7-1.5c-1.6,0-2.8,0.6-3.7,1.5c-1.3,1.3-1.8,3-1.8,5.1
						c0,2.1,0.5,3.8,1.8,5.1c0.9,0.9,2.1,1.5,3.7,1.5c1.6,0,2.8-0.6,3.7-1.5c1.3-1.3,1.8-3,1.8-5.1
						C328.7,677.2,328.2,675.5,326.9,674.2 M326,683.6c-0.7,0.7-1.6,1.1-2.8,1.1s-2.1-0.4-2.8-1.1c-1.1-1.2-1.4-2.6-1.4-4.3
						c0-1.6,0.3-3.1,1.4-4.3c0.7-0.7,1.6-1.1,2.8-1.1s2.1,0.4,2.8,1.1c1.1,1.2,1.4,2.6,1.4,4.3C327.4,681,327.1,682.4,326,683.6"/>
					<path id="path2455" class="st2" d="M337.9,684.5c-3.1,0-4-2.8-4-5.5v-6h-1.3v12.6h1.1l0.2-2.5c0.6,1.7,2.2,2.7,4,2.7
						c0.4,0,0.8,0,1.2-0.1v-1.3C338.7,684.5,338.3,684.5,337.9,684.5"/>
					<path id="path2457" class="st2" d="M346.3,672.9c-2.3,0-3.2,1.5-3.2,3.7v7.9h-2.5v1.2h2.5v3.5l1.3,0.3v-3.8h3.9v-1.2h-3.9v-7.9
						c0-1.5,0.4-2.5,2.1-2.5c0.7,0,1.3,0.1,2,0.2v-1.1C347.7,673,347,672.9,346.3,672.9"/>
					<path id="path2459" class="st2" d="M367.8,673v8.2c0,2.2-0.8,3.5-3,3.5c-1,0-1.7-0.3-2.2-0.9c-1-0.9-1.5-2.2-1.5-3.8V673h-1.3
						v8.2c0,2.2-0.8,3.5-3,3.5c-1,0-1.7-0.3-2.2-0.9c-1.1-1.1-1.5-2.8-1.5-4.6V673h-1.3v12.6h1.1l0.1-2.2c0.7,1.4,2,2.5,3.8,2.5
						c2.2,0,3.5-1.1,4-2.7c0.7,1.6,2,2.7,4.1,2.7c2.9,0,4.2-1.9,4.2-4.6V673H367.8z"/>
					<path id="path2461" class="st2" d="M382.4,673.1l-0.2,2.3c-0.7-1.6-2.5-2.6-4.3-2.6c-2.9,0-4.4,1.8-4.4,4.6v8.3h1.3v-8.2
						c0-2.2,1-3.4,3.2-3.4c3.1,0,4.2,2.7,4.2,5.4v6.3h1.3v-12.6H382.4z"/>
					<path id="path2463" class="st2" d="M397.1,673v8.2c0,2.2-1,3.4-3.2,3.4c-3.1,0-4.2-2.7-4.2-5.4V673h-1.3v12.6h1.1l0.2-2.3
						c0.7,1.6,2.5,2.6,4.3,2.6c2.9,0,4.4-1.8,4.4-4.6V673H397.1z"/>
					<path id="path2465" class="st2" d="M411.8,673l-0.2,2.2c-0.7-1.6-2.5-2.5-4.2-2.5c-1.4,0-2.5,0.5-3.3,1.2
						c-1.4,1.2-2.1,3.2-2.1,5.4c0,2.1,0.6,4.1,2,5.3c0.8,0.8,2,1.3,3.4,1.3c1.8,0,3.5-1,4.2-2.4v7.7h1.3V673H411.8z M410,683.7
						c-0.6,0.6-1.5,1-2.6,1c-1.2,0-2-0.4-2.7-1.1c-1-1.1-1.4-2.7-1.4-4.3c0-1.8,0.5-3.5,1.7-4.5c0.6-0.6,1.4-0.9,2.5-0.9
						c1.1,0,1.9,0.4,2.6,1c1.1,1.1,1.6,2.6,1.6,4.4C411.6,681.2,411.2,682.6,410,683.7"/>
				</g>
			</g>
		</g>
	</g>
</g>
</svg>
