<?xml version="1.0" encoding="UTF-8"?>
<svg version="1.0" viewBox="0 0 442.05 87.99" xmlns="http://www.w3.org/2000/svg">
<defs>
<clipPath id="a">
<path d="m0 841.89h1190.6v-841.89h-1190.6v841.89z"/>
</clipPath>
</defs>
<g transform="translate(-83.262 -844.08)">
<g transform="matrix(1.25 0 0 -1.25 -176.97 1763)">
<g clip-path="url(#a)">
<path d="m279.91 712.1v-26.24c0-3.749-1.949-5.471-5.476-5.471h-9.592c-3.526 0-5.474 1.722-5.474 5.471v26.24h-28.112v14.993h-7.349v-14.993h-7.722v-7.423h7.722v-18.666c0-8.026 5.396-12.97 12.822-12.97h3.823l0.15 7.42h-3.973c-3.522 0-5.473 1.875-5.473 5.55v18.666h20.763v-18.817c0-7.947 5.55-12.819 12.823-12.819h9.592c7.275 0 12.822 4.872 12.822 12.819v26.24h-7.346z" fill="#6ec72d"/>
<path d="m308.03 699.1c-2.341 0-3.247 1.487-3.247 3.677v7.93h-2.517v1.158h2.517v3.476l1.257 0.301v-3.777h3.905v-1.158h-3.905v-7.881c0-1.485 0.402-2.545 2.092-2.545 0.68 0 1.308 0.105 1.988 0.23v-1.109c-0.704-0.151-1.384-0.302-2.09-0.302" fill="#231f20"/>
<path d="m323.01 705.27h-9.617c0.026-1.46 0.503-2.817 1.308-3.775 0.706-0.833 1.688-1.335 3.048-1.335 1.108 0 2.065 0.404 2.744 1.108 0.454 0.478 0.806 1.033 0.956 1.787h1.308c-0.175-1.083-0.703-1.965-1.408-2.643-0.905-0.905-2.165-1.46-3.6-1.46-1.813 0-3.097 0.755-4.004 1.785-1.033 1.208-1.611 2.872-1.611 4.785 0 1.585 0.251 3.147 1.233 4.481 1.058 1.435 2.519 2.19 4.28 2.19 3.399 0 5.389-2.921 5.389-6.091 0-0.304-0.026-0.527-0.026-0.832m-5.363 5.739c-2.593 0-4.228-2.088-4.228-4.579h8.332c-0.049 2.391-1.536 4.579-4.104 4.579" fill="#231f20"/>
<path d="m331.17 698.95c-1.561 0-2.821 0.602-3.701 1.485-1.31 1.309-1.764 2.996-1.764 5.138 0 2.136 0.454 3.823 1.764 5.134 0.88 0.881 2.14 1.484 3.701 1.484 2.618 0 4.557-1.71 4.859-4.257h-1.309c-0.279 1.74-1.637 3.023-3.55 3.023-1.21 0-2.141-0.401-2.796-1.081-1.132-1.181-1.385-2.669-1.385-4.303 0-1.64 0.253-3.147 1.385-4.332 0.655-0.679 1.586-1.056 2.796-1.056 1.938 0 3.271 1.357 3.576 3.069h1.333c-0.327-2.442-2.267-4.304-4.909-4.304" fill="#231f20"/>
<path d="m348.18 699.28v8.232c0 2.19-0.956 3.498-3.248 3.498-3.096 0-4.18-2.716-4.18-5.434v-6.296h-1.258v18.177h1.258v-7.906c0.704 1.614 2.493 2.643 4.255 2.643 2.894 0 4.432-1.786 4.432-4.606v-8.308h-1.259z" fill="#231f20"/>
<path d="m362.86 699.28v8.232c0 2.19-0.956 3.448-3.249 3.448-3.096 0-4.177-2.666-4.177-5.384v-6.296h-1.26v12.588h1.108l0.152-2.29c0.705 1.587 2.493 2.616 4.254 2.616 2.896 0 4.432-1.786 4.432-4.606v-8.308h-1.26z" fill="#231f20"/>
<path d="m368.76 717.13h1.761v-1.761h-1.761v1.761zm0.227-5.26h1.334v-12.588h-1.334v12.588z" fill="#231f20"/>
<path d="m383.53 700.46c-0.906-1.006-2.417-1.509-4.078-1.509-1.712 0-3.173 0.527-4.13 1.612-0.704 0.804-1.008 1.508-1.057 2.542h1.283c0.075-0.758 0.404-1.411 0.933-1.94 0.728-0.705 1.761-1.006 2.971-1.006 1.31 0 2.341 0.301 2.971 0.93 0.451 0.454 0.678 0.882 0.678 1.612 0 1.133-0.805 2.09-2.315 2.291l-2.443 0.328c-1.031 0.125-2.14 0.454-2.845 1.258-0.453 0.528-0.705 1.184-0.705 1.991 0 1.007 0.429 1.837 1.083 2.439 0.907 0.836 2.141 1.184 3.45 1.184 1.509 0 2.944-0.476 3.801-1.484 0.578-0.68 0.932-1.512 0.958-2.315h-1.26c-0.049 0.402-0.226 1.033-0.629 1.509-0.58 0.68-1.562 1.106-2.87 1.106-0.983 0-1.712-0.173-2.267-0.575-0.628-0.455-0.98-1.06-0.98-1.737 0-1.059 0.528-1.865 2.44-2.118l2.392-0.328c2.366-0.325 3.475-1.937 3.475-3.472 0-0.934-0.301-1.689-0.856-2.318" fill="#231f20"/>
<path d="m392.67 698.95c-1.561 0-2.819 0.602-3.699 1.485-1.31 1.309-1.765 2.996-1.765 5.138 0 2.136 0.455 3.823 1.765 5.134 0.88 0.881 2.138 1.484 3.699 1.484 2.619 0 4.556-1.71 4.859-4.257h-1.307c-0.278 1.74-1.637 3.023-3.552 3.023-1.208 0-2.141-0.401-2.796-1.081-1.131-1.181-1.383-2.669-1.383-4.303 0-1.64 0.252-3.147 1.383-4.332 0.655-0.679 1.588-1.056 2.796-1.056 1.938 0 3.274 1.357 3.575 3.069h1.335c-0.329-2.442-2.267-4.304-4.91-4.304" fill="#231f20"/>
<path d="m409.69 699.28v8.232c0 2.19-0.957 3.498-3.249 3.498-3.097 0-4.177-2.716-4.177-5.434v-6.296h-1.262v18.177h1.262v-7.906c0.703 1.614 2.49 2.643 4.252 2.643 2.898 0 4.433-1.786 4.433-4.606v-8.308h-1.259z" fill="#231f20"/>
<path d="m425.48 705.27h-9.616c0.024-1.46 0.502-2.817 1.307-3.775 0.706-0.833 1.689-1.335 3.047-1.335 1.107 0 2.065 0.404 2.745 1.108 0.452 0.478 0.805 1.033 0.957 1.787h1.309c-0.177-1.083-0.707-1.965-1.411-2.643-0.907-0.905-2.165-1.46-3.6-1.46-1.815 0-3.096 0.755-4.002 1.785-1.032 1.208-1.613 2.872-1.613 4.785 0 1.585 0.253 3.147 1.234 4.481 1.058 1.435 2.517 2.19 4.281 2.19 3.399 0 5.387-2.921 5.387-6.091 0-0.304-0.025-0.527-0.025-0.832m-5.362 5.739c-2.594 0-4.23-2.088-4.23-4.579h8.333c-0.051 2.391-1.536 4.579-4.103 4.579" fill="#231f20"/>
<path d="m443.25 699.31-0.152 2.291c-0.705-1.613-2.492-2.619-4.255-2.619-2.895 0-4.43 1.787-4.43 4.607v8.309h1.258v-8.234c0-2.19 0.956-3.449 3.249-3.449 3.094 0 4.178 2.668 4.178 5.387v6.296h1.26v-12.588h-1.108z" fill="#231f20"/>
<path d="m458.03 699.28v8.232c0 2.19-0.958 3.448-3.249 3.448-3.097 0-4.18-2.666-4.18-5.384v-6.296h-1.258v12.588h1.107l0.151-2.29c0.705 1.587 2.494 2.616 4.255 2.616 2.896 0 4.431-1.786 4.431-4.606v-8.308h-1.257z" fill="#231f20"/>
<path d="m463.92 717.13h1.762v-1.761h-1.762v1.761zm0.226-5.26h1.332v-12.588h-1.332v12.588z" fill="#231f20"/>
<path d="m474.7 699.28h-1.286l-4.983 12.588h1.434l4.231-10.801 4.051 10.801h1.337l-4.784-12.588z" fill="#231f20"/>
<path d="m491.99 705.27h-9.616c0.024-1.46 0.503-2.817 1.308-3.775 0.704-0.833 1.688-1.335 3.046-1.335 1.11 0 2.065 0.404 2.744 1.108 0.454 0.478 0.806 1.033 0.956 1.787h1.31c-0.176-1.083-0.704-1.965-1.408-2.643-0.909-0.905-2.167-1.46-3.602-1.46-1.812 0-3.098 0.755-4.002 1.785-1.033 1.208-1.611 2.872-1.611 4.785 0 1.585 0.25 3.147 1.233 4.481 1.059 1.435 2.518 2.19 4.279 2.19 3.399 0 5.388-2.921 5.388-6.091 0-0.304-0.025-0.527-0.025-0.832m-5.363 5.739c-2.59 0-4.229-2.088-4.229-4.579h8.334c-0.05 2.391-1.536 4.579-4.105 4.579" fill="#231f20"/>
<path d="m501.03 710.78c-3.149 0-4.002-2.819-4.002-5.463v-6.042h-1.26v12.588h1.107l0.153-2.542c0.552 1.737 2.238 2.668 4.002 2.668 0.402 0 0.83 0 1.234-0.076v-1.259c-0.404 0.102-0.832 0.126-1.234 0.126" fill="#231f20"/>
<path d="m513.24 700.46c-0.904-1.006-2.415-1.509-4.079-1.509-1.709 0-3.171 0.527-4.129 1.612-0.706 0.804-1.005 1.508-1.054 2.542h1.281c0.076-0.758 0.404-1.411 0.933-1.94 0.728-0.705 1.761-1.006 2.969-1.006 1.312 0 2.343 0.301 2.97 0.93 0.455 0.454 0.683 0.882 0.683 1.612 0 1.133-0.806 2.09-2.319 2.291l-2.442 0.328c-1.032 0.125-2.14 0.454-2.843 1.258-0.452 0.528-0.705 1.184-0.705 1.991 0 1.007 0.427 1.837 1.081 2.439 0.907 0.836 2.14 1.184 3.448 1.184 1.513 0 2.947-0.476 3.805-1.484 0.58-0.68 0.931-1.512 0.955-2.315h-1.259c-0.05 0.402-0.225 1.033-0.628 1.509-0.582 0.68-1.56 1.106-2.873 1.106-0.981 0-1.71-0.173-2.263-0.575-0.63-0.455-0.983-1.06-0.983-1.737 0-1.059 0.53-1.865 2.44-2.118l2.394-0.328c2.367-0.325 3.475-1.937 3.475-3.472 0-0.934-0.303-1.689-0.857-2.318" fill="#231f20"/>
<path d="m517.9 717.13h1.761v-1.761h-1.761v1.761zm0.226-5.26h1.335v-12.588h-1.335v12.588z" fill="#231f20"/>
<path d="m528.42 699.1c-2.341 0-3.249 1.487-3.249 3.677v7.93h-2.516v1.158h2.516v3.476l1.258 0.301v-3.777h3.903v-1.158h-3.903v-7.881c0-1.485 0.403-2.545 2.09-2.545 0.681 0 1.31 0.105 1.992 0.23v-1.109c-0.706-0.151-1.386-0.302-2.091-0.302" fill="#231f20"/>
<path d="m543.68 699.2c-1.562 0-1.991 1.134-1.991 2.469-0.68-1.788-2.593-2.718-4.532-2.718-2.44 0-4.332 1.46-4.332 3.876 0 2.24 1.738 3.576 4.234 3.751l4.63 0.329v1.233c0 2.091-1.411 2.868-3.323 2.868-1.988 0-3.499-0.904-3.626-2.767h-1.258c0.178 2.542 2.165 3.951 4.884 3.951 1.712 0 3.575-0.578 4.256-2.315 0.301-0.78 0.326-1.585 0.326-2.418v-5.74c0-0.856 0.127-1.358 0.983-1.358 0.151 0 0.226 0 0.352 0.026v-1.109c-0.303-0.05-0.303-0.078-0.603-0.078m-1.991 6.547-4.506-0.278c-1.864-0.122-3.071-1.104-3.071-2.642 0-1.812 1.359-2.719 3.145-2.719 3.173 0 4.432 2.568 4.432 4.986v0.653zm-6.342 10.801h1.509v-1.585h-1.509v1.585zm4.63 0h1.535v-1.585h-1.535v1.585z" fill="#231f20"/>
<path d="m551.73 699.1c-2.341 0-3.249 1.487-3.249 3.677v7.93h-2.517v1.158h2.517v3.476l1.259 0.301v-3.777h3.902v-1.158h-3.902v-7.881c0-1.485 0.403-2.545 2.092-2.545 0.677 0 1.308 0.105 1.988 0.23v-1.109c-0.705-0.151-1.386-0.302-2.09-0.302" fill="#231f20"/>
<path d="m312.76 673.03-0.149 2.215c-0.682-1.561-2.494-2.542-4.181-2.542-1.433 0-2.517 0.451-3.348 1.183-1.41 1.232-2.064 3.248-2.064 5.411 0 2.065 0.63 4.08 1.963 5.339 0.831 0.803 1.965 1.31 3.423 1.31 1.79 0 3.525-1.008 4.207-2.445v7.705h1.257v-18.176h-1.108zm-1.711 10.699c-0.629 0.604-1.485 0.982-2.645 0.982-1.183 0-2.038-0.428-2.693-1.108-0.983-1.056-1.41-2.669-1.41-4.279 0-1.79 0.503-3.475 1.662-4.508 0.63-0.554 1.434-0.881 2.494-0.881 1.107 0 1.937 0.404 2.566 1.009 1.134 1.103 1.613 2.641 1.613 4.38 0 1.863-0.429 3.322-1.587 4.405" fill="#231f20"/>
<path d="m326.91 674.21c-0.881-0.88-2.113-1.509-3.674-1.509-1.562 0-2.794 0.629-3.679 1.509-1.308 1.309-1.784 2.97-1.784 5.112 0 2.139 0.476 3.803 1.784 5.111 0.885 0.882 2.117 1.511 3.679 1.511 1.561 0 2.793-0.629 3.674-1.511 1.31-1.308 1.788-2.972 1.788-5.111 0-2.142-0.478-3.803-1.788-5.112m-0.905 9.391c-0.654 0.68-1.562 1.108-2.769 1.108s-2.116-0.428-2.77-1.108c-1.133-1.184-1.41-2.644-1.41-4.279 0-1.636 0.277-3.098 1.41-4.281 0.654-0.681 1.563-1.108 2.77-1.108s2.115 0.427 2.769 1.108c1.134 1.183 1.409 2.645 1.409 4.281 0 1.635-0.275 3.095-1.409 4.279" fill="#231f20"/>
<path d="m337.86 684.54c-3.148 0-4.003-2.822-4.003-5.466v-6.04h-1.259v12.589h1.106l0.153-2.545c0.555 1.739 2.24 2.67 4.003 2.67 0.403 0 0.831 0 1.234-0.077v-1.259c-0.403 0.101-0.831 0.128-1.234 0.128" fill="#231f20"/>
<path d="m346.32 672.85c-2.34 0-3.247 1.487-3.247 3.676v7.933h-2.517v1.158h2.517v3.473l1.26 0.304v-3.777h3.902v-1.158h-3.902v-7.882c0-1.484 0.4-2.542 2.09-2.542 0.679 0 1.309 0.099 1.987 0.225v-1.108c-0.704-0.15-1.385-0.302-2.09-0.302" fill="#231f20"/>
<path d="m367.79 673.03v8.232c0 2.191-0.807 3.498-2.998 3.498-0.956 0-1.661-0.325-2.24-0.856-0.982-0.931-1.485-2.238-1.485-3.752v-7.122h-1.284v8.232c0 2.191-0.831 3.498-3.021 3.498-0.957 0-1.688-0.325-2.242-0.856-1.133-1.051-1.51-2.794-1.51-4.58v-6.294h-1.258v12.589h1.108l0.15-2.166c0.655 1.434 2.015 2.493 3.825 2.493 2.194 0 3.476-1.082 3.98-2.72 0.655 1.56 1.989 2.72 4.054 2.72 2.945 0 4.18-1.914 4.18-4.609v-8.307h-1.259z" fill="#231f20"/>
<path d="m382.37 673.05-0.154 2.291c-0.705-1.611-2.49-2.62-4.254-2.62-2.896 0-4.431 1.79-4.431 4.611v8.306h1.259v-8.232c0-2.19 0.958-3.449 3.248-3.449 3.097 0 4.178 2.669 4.178 5.388v6.293h1.26v-12.588h-1.106z" fill="#231f20"/>
<path d="m397.15 673.03v8.232c0 2.191-0.957 3.449-3.246 3.449-3.098 0-4.181-2.669-4.181-5.387v-6.294h-1.258v12.589h1.107l0.151-2.292c0.706 1.586 2.493 2.619 4.256 2.619 2.897 0 4.432-1.79 4.432-4.609v-8.307h-1.261z" fill="#231f20"/>
<path d="m411.75 673.03-0.152 2.215c-0.678-1.561-2.492-2.542-4.181-2.542-1.434 0-2.516 0.451-3.349 1.183-1.409 1.232-2.063 3.248-2.063 5.411 0 2.065 0.631 4.08 1.966 5.339 0.831 0.803 1.961 1.31 3.422 1.31 1.789 0 3.527-1.008 4.205-2.445v7.705h1.26v-18.176h-1.108zm-1.714 10.699c-0.63 0.604-1.485 0.982-2.643 0.982-1.183 0-2.039-0.428-2.694-1.108-0.981-1.056-1.41-2.669-1.41-4.279 0-1.79 0.505-3.475 1.66-4.508 0.631-0.554 1.437-0.881 2.495-0.881 1.107 0 1.938 0.404 2.567 1.009 1.133 1.103 1.613 2.641 1.613 4.38 0 1.863-0.429 3.322-1.588 4.405" fill="#231f20"/>
</g>
</g>
</g>
</svg>
