<?xml version="1.0" encoding="utf-8"?>
<!-- Generator: Adobe Illustrator 24.3.0, SVG Export Plug-In . SVG Version: 6.00 Build 0)  -->
<svg version="1.1" id="Ebene_1" xmlns="http://www.w3.org/2000/svg" xmlns:xlink="http://www.w3.org/1999/xlink" x="0px" y="0px"
	 viewBox="0 0 2891.34 1077.17" style="enable-background:new 0 0 2891.34 1077.17;" xml:space="preserve">
<g>
	<path d="M1266.75,754.33l33.56,137.66h33.56l26.9-105.25l24.98,105.25h32.79l35.11-137.66h-28.23l-22.32,103.15l-24.21-103.15
		h-33.39l-26.88,103.15l-21.35-103.15H1266.75L1266.75,754.33z M1483.62,754.12v82.4c0,12.77,0.37,23.47,7.02,33.95
		c12.98,20.75,38.15,23.81,51.88,23.81c27.85,0,60.45-13.14,60.45-54.14v-86.01h-28.79v82.4c0,13.92-1.52,19.26-4.39,23.47
		c-7.64,11.81-21.92,12-26.71,12c-28.81,0-29.93-18.86-29.93-33.95v-83.91H1483.62L1483.62,754.12z M1645.89,891.62h29.93v-53.58
		h20.03c7.26,0,21.18,0,31.29-6.49c10.86-7.05,17.53-20.59,17.53-36.61c0-7.08-1.17-16.98-8.41-25.75
		c-11.41-13.73-28.01-15.06-47.86-15.06h-42.52V891.62L1645.89,891.62z M1675.04,776.42h14.9c8.38,0,24.24,0,24.24,18.7
		c0,20.99-17.77,20.99-27.3,20.99h-11.84V776.42L1675.04,776.42z M1777.66,891.62h29.93v-53.58h20.03c7.26,0,21.18,0,31.29-6.49
		c10.85-7.05,17.5-20.59,17.5-36.61c0-7.08-1.12-16.98-8.38-25.75c-11.41-13.73-28.01-15.06-47.86-15.06h-42.52V891.62
		L1777.66,891.62z M1806.82,776.42h14.9c8.38,0,24.21,0,24.21,18.7c0,20.99-17.72,20.99-27.27,20.99h-11.84V776.42L1806.82,776.42z
		 M1907.36,891.62h94.37v-22.88h-64.83v-37.2h58.72v-22.48h-58.72v-32.83h62.73v-22.48h-92.27V891.62L1907.36,891.62z
		 M2036.45,891.62h30.12v-55.68h25.94c4.97,0,12.21,0,14.9,7.79c1.89,5.35,6.09,40.25,7.42,47.89h32.59
		c-1.52-2.29-2.66-3.83-4.2-9.93c-0.93-3.8-2.08-10.48-4.18-26.71c-2.47-17.91-4.02-29.72-24.77-31.64
		c6.65-1.92,28.76-8.01,28.76-33.76c0-8.97-3.43-19.08-12-26.5c-11.04-9.52-26.5-9.52-41.77-9.34h-52.81V891.62L2036.45,891.62z
		 M2065.61,775.46h19.85c9.34,0,14.87,0,19.45,3.25c2.69,1.73,7.26,6.12,7.26,15.46c0,9.74-5.54,14.5-7.64,16.04
		c-4.76,3.81-11.63,3.81-15.06,3.81h-23.86V775.46L2065.61,775.46z M2207.34,891.62h29.72V776.6h41v-22.85h-111.72v22.85h41V891.62
		L2207.34,891.62z M2327.09,753.75l-49.78,137.87h28.23l10.3-29.74h54.54l9.93,29.74h29.74l-47.86-137.87H2327.09L2327.09,753.75z
		 M2323.47,839.58l20.41-58.74l19.05,58.74H2323.47L2323.47,839.58z M2440.56,891.62h89.23v-23.44h-59.12V753.94h-30.12V891.62
		L2440.56,891.62z"/>
	<path d="M1277.63,478.97v82.37c0,12.8,0.39,23.47,7.05,33.95c12.96,20.78,38.12,23.84,51.87,23.84c27.86,0,60.43-13.14,60.43-54.14
		v-86.01h-28.76v82.37c0,13.94-1.53,19.26-4.39,23.47c-7.64,11.84-21.95,12.03-26.71,12.03c-28.81,0-29.96-18.89-29.96-33.95v-83.91
		H1277.63L1277.63,478.97z M1435.53,616.44h27.84v-114.4l53.4,114.4h40.6V478.59h-27.43v108.51l-51.7-108.51h-42.72V616.44
		L1435.53,616.44z M1596.88,616.44h29.53V478.2h-29.53V616.44L1596.88,616.44z M1656,479.15l50.74,137.28h32.22l50.74-137.28h-29.18
		l-36.24,108.13l-36.05-108.13H1656L1656,479.15z M1820.76,616.44h94.39v-22.85h-64.86v-37.19h58.75v-22.5h-58.75v-32.83h62.76
		v-22.48h-92.29V616.44L1820.76,616.44z M1949.88,616.44H1980v-55.68h25.94c4.95,0,12.21,0,14.87,7.82
		c1.92,5.35,6.12,40.25,7.45,47.86h32.59c-1.54-2.29-2.66-3.8-4.2-9.92c-0.96-3.81-2.1-10.48-4.2-26.69
		c-2.45-17.93-3.99-29.74-24.74-31.64c6.65-1.92,28.76-8.01,28.76-33.77c0-8.97-3.43-19.06-12-26.5
		c-11.07-9.52-26.5-9.52-41.77-9.34h-52.81V616.44L1949.88,616.44z M1979.04,500.31h19.85c9.34,0,14.87,0,19.45,3.25
		c2.66,1.71,7.26,6.11,7.26,15.46c0,9.73-5.53,14.5-7.64,16.02c-4.76,3.83-11.65,3.83-15.08,3.83h-23.84V500.31L1979.04,500.31z
		 M2089.47,572.41c0.19,13.35,0.59,47.28,53.37,47.28c38.15,0,58.75-20.01,58.75-44.78c0-26.9-23.44-33.39-47.28-39.11
		c-19.85-4.96-29.96-7.25-29.96-20.03c0-11.25,8.97-18.7,22.69-18.7c20.43,0,21.95,16.23,22.32,21h28.41c0-4.59,0-15.66-7.82-25.58
		c-10.3-12.94-27.27-16.19-41.58-16.19c-38.31,0-54.51,20-54.51,42.71c0,23.84,17.9,33.58,50.71,41.77
		c17.56,4.2,26.15,6.31,26.15,18.49c0,11.65-10.11,19.26-26.15,19.26c-25.36,0-24.98-19.63-24.98-26.13H2089.47L2089.47,572.41z
		 M2236.71,616.44h29.53V478.2h-29.53V616.44L2236.71,616.44z M2337.2,616.44h29.72V501.45h41.03v-22.87H2296.2v22.87h41V616.44
		L2337.2,616.44z M2483.29,468.27h19.42v-22.48h-19.42V468.27L2483.29,468.27z M2450.48,468.27h19.42v-22.48h-19.42V468.27
		L2450.48,468.27z M2458.86,478.76l-49.75,137.68h28.2l10.32-29.74h54.51l9.9,29.74h29.77l-47.86-137.68H2458.86L2458.86,478.76z
		 M2455.24,564.4l20.41-58.75l19.07,58.75H2455.24L2455.24,564.4z M2586.46,616.44h29.72V501.45h41v-22.87h-111.71v22.87h41V616.44
		L2586.46,616.44z"/>
	<path d="M1276.87,341.29h51.47c5.35,0,24.05,0,34.72-5.53c10.67-5.32,20.19-16.19,20.19-32.41c0-14.5-8.19-29.76-29.15-33.58v-0.37
		c7.99-2.1,14.67-8.19,15.62-9.34c7.05-6.48,8-15.46,8-20.61c0-8.02-2.85-21.36-15.43-29.36c-10.48-6.48-25.93-6.48-33.95-6.48
		h-51.47V341.29L1276.87,341.29z M1305.06,224.76h20.05c9.72,0,24.23,0,24.23,17.19c0,17.75-15.26,17.75-23.65,17.75h-20.62V224.76
		L1305.06,224.76z M1305.06,281.03h16.99c14.11,0,31.86,0,31.86,19.65c0,18.5-15.26,18.5-28.81,18.5h-20.03V281.03L1305.06,281.03z
		 M1420.47,341.29h94.38v-22.87h-64.85v-37.21h58.76v-22.48h-58.76V225.9h62.75v-22.48h-92.28V341.29L1420.47,341.29z
		 M1549.6,341.29h30.09V285.6h25.94c4.97,0,12.21,0,14.9,7.81c1.92,5.35,6.09,40.24,7.42,47.88h32.59
		c-1.52-2.29-2.66-3.82-4.18-9.92c-0.96-3.8-2.1-10.48-4.2-26.7c-2.47-17.92-3.99-29.73-24.77-31.65
		c6.68-1.9,28.79-7.99,28.79-33.76c0-8.97-3.46-19.06-12.03-26.5c-11.04-9.52-26.5-9.52-41.77-9.34h-52.78V341.29L1549.6,341.29z
		 M1578.74,225.14h19.85c9.34,0,14.87,0,19.45,3.25c2.69,1.71,7.26,6.11,7.26,15.46c0,9.73-5.54,14.5-7.64,16.03
		c-4.76,3.82-11.63,3.82-15.06,3.82h-23.87V225.14L1578.74,225.14z M1815.02,245.75c-0.19-7.44-0.74-18.32-9.9-28.8
		c-10.85-12.39-29.16-17.33-46.9-17.33c-41.8,0-72.29,26.1-72.29,74.95c0,14.47,2.87,36.41,18.31,51.48
		c10.86,10.67,27.09,18.29,58.56,18.29c27.64,0,41.75-4.76,50.34-7.62v-68.83h-56.24v22.87h26.69v29.01
		c-3.22,0.94-8.19,2.66-22.51,2.66c-16.39,0-25.54-4.2-32.43-11.83c-10.11-10.88-11.44-27.66-11.44-36.99
		c0-21.18,6.68-52.47,40.25-52.47c6.49,0,17.37,1.53,23.09,10.68c3.43,5.35,3.62,10.31,3.81,13.93H1815.02L1815.02,245.75z
		 M1853.75,341.29h29.53V203.05h-29.53V341.29L1853.75,341.29z M1917.26,297.26c0.19,13.34,0.58,47.28,53.4,47.28
		c38.15,0,58.72-20.01,58.72-44.8c0-26.88-23.44-33.38-47.28-39.09c-19.85-4.96-29.96-7.25-29.96-20.02
		c0-11.27,8.97-18.72,22.72-18.72c20.41,0,21.92,16.23,22.32,21h28.39c0-4.58,0-15.66-7.82-25.57
		c-10.27-12.96-27.24-16.2-41.56-16.2c-38.34,0-54.54,20.01-54.54,42.73c0,23.84,17.9,33.56,50.71,41.76
		c17.56,4.2,26.15,6.29,26.15,18.5c0,11.63-10.11,19.26-26.15,19.26c-25.35,0-24.98-19.65-24.98-26.13H1917.26L1917.26,297.26z
		 M2173.92,248.41c0-27.46-21.15-45.75-51.3-45.75c-38.71,0-63.08,28.97-63.08,72.65c0,34.15,15.43,69.23,62.9,69.23
		c12.58,0,28.04-2.86,40.25-15.43c11.04-11.44,11.81-24.22,12.4-32.43h-31.1c-0.56,18.32-12.4,26.14-24.79,26.14
		c-28.79,0-28.79-39.11-28.79-47.3c0-28.43,9.15-51.32,31.08-51.32c20.03,0,21.74,19.46,22.32,24.22H2173.92L2173.92,248.41z
		 M2208.3,341.29h29.53v-60.46h52.46v60.46h29.53V203.42h-29.9v55.12h-52.09v-55.12h-29.53V341.29L2208.3,341.29z M2362.55,341.29
		h94.39v-22.87h-64.86v-37.21h58.74v-22.48h-58.74V225.9h62.76v-22.48h-92.29V341.29L2362.55,341.29z"/>
	<path d="M613.72,132.56l-0.03-0.01c-0.08-0.81-0.11-1.65-0.11-2.5c0-16.18,13.18-29.29,29.45-29.29
		c16.25,0,29.44,13.12,29.44,29.29c0,0.85-0.04,1.69-0.11,2.53L613.72,132.56L613.72,132.56z"/>
	<path d="M645.33,250.36v-31.59h-28.81H512.09h0.05c1.86,17.77,16.81,31.59,34.97,31.59H645.33L645.33,250.36z"/>
	<path d="M545.72,132.6l-31.82-31.66h40.59l-0.01,0.01c18.38,0,33.52,13.86,35.41,31.66L545.72,132.6L545.72,132.6z"/>
	<path d="M487.95,250.58h-37.73l-0.05,0.12c2.99-18.04,18.73-31.79,37.71-31.79L487.95,250.58L487.95,250.58z"/>
	<path d="M635.87,289.93h-75.01h-72.93h-0.13c-18.82,0-34.48-13.55-37.63-31.38l75.3,0.13h72.91h0.15
		c18.82,0,34.47,13.54,37.62,31.38L635.87,289.93L635.87,289.93z"/>
	<path d="M527.58,336.62l-31.69,31.82h67.3h100.82h88.9c18.46,0,33.64-13.98,35.44-31.89l0.04,0.07h-66.75H617.87H527.58
		L527.58,336.62z"/>
	<path d="M742.16,132.58l31.83-31.67h-40.6l0.02,0.02c-18.4,0-33.53,13.86-35.42,31.66L742.16,132.58L742.16,132.58z"/>
	<polygon points="701.15,171.83 732.97,140.15 732.97,140.02 552.37,140.29 584.06,171.96 701.01,171.96 701.15,171.83 	"/>
	<path d="M645.33,289.94v-31.67l149.02,0.04h0.08c-1.89,17.8-17.03,31.67-35.41,31.67L645.33,289.94L645.33,289.94z"/>
	<path d="M653.2,250.62l31.98-31.67h92.12l0.07-0.04c-1.89,17.8-17.03,31.66-35.41,31.66L653.2,250.62L653.2,250.62z"/>
	<path d="M537.58,297.6h98.57h71.24h95.49h0.07c-1.94,17.73-16.91,31.67-35.25,31.67h-86.67H633.2h-60.42l0,0
		C554.42,329.28,539.52,315.35,537.58,297.6L537.58,297.6L537.58,297.6z"/>
	<path d="M500.06,407.52v0.04l-41.45,41.08l-22.41-22.5l-0.09,0.1h0.08l50.66-50.2h107.83h51.17h61.98h34.92l30.49-0.05
		c-1.96,17.73-17.05,31.53-35.4,31.53L500.06,407.52L500.06,407.52z"/>
	<path d="M516.04,446.91l202.43,0.08c18.4,0,33.54-13.86,35.41-31.67l-251.36,0.04L367.5,549.69c13.98,11.25,34.68,10.59,47.69-2.34
		l0,0L516.04,446.91L516.04,446.91z"/>
	<path d="M531.7,486.18l162.65,0.12c18.4,0,33.53-13.88,35.41-31.69l-211.46,0.04l-95.69,95.03c14,11.23,34.69,10.56,47.69-2.39l0,0
		L531.7,486.18L531.7,486.18z"/>
	<path d="M533.99,494.23h175l22.47,31.67h-92.72h-91.36l-21.97,21.87l0,0c-13,12.93-33.7,13.62-47.68,2.34l56.2-55.82L533.99,494.23
		L533.99,494.23z"/>
	<path d="M764.72,572.51l-177.05,0.13c1.88,17.8,17,31.87,35.39,31.87l0,0l164.29,0.05L764.72,572.51L764.72,572.51z"/>
	<path d="M737.27,533.62l-185.93-0.11c1.88,17.8,17,31.87,35.39,31.87l0,0l173,0.05L737.27,533.62L737.27,533.62z"/>
	<path d="M642.23,965.82h-55.84h0.05c1.8,17.75,16.06,31.55,33.39,31.55h22.42h3.08v-31.53h-2.95L642.23,965.82L642.23,965.82z"/>
	<path d="M668.13,918.78h-23.68h-83.58l0.05-0.13c1.93-17.8,17.08-31.66,35.48-31.66h40.06h31.67h31.77l0,0l0,0h40.04
		c18.41,0,33.56,13.86,35.49,31.66l0.05,0.13H691.9h-23.68H668.13L668.13,918.78z"/>
	<path d="M612.82,808.56c16.76,1.68,30.09,14.87,31.89,31.5l0.03,0.13h-31.9L612.82,808.56L612.82,808.56L612.82,808.56z"/>
	<path d="M665.27,847.66h20.89h89.33l-0.05,0.13c-1.93,17.83-17.08,31.69-35.49,31.69H740h-74.72h-29.03h-75.59l0.05-0.13
		c1.92-17.8,17.08-31.69,35.48-31.69h40.05H665.27L665.27,847.66z"/>
	<path d="M647.28,926.12h77.36l-0.07,0.11c-1.92,17.83-17.07,31.69-35.48,31.69h0.07h-41.84h-63.89h-83.57l0.05-0.11
		c1.93-17.83,17.08-31.69,35.48-31.69h40.05h34.35h37.53H647.28L647.28,926.12z"/>
	<path d="M677.9,211l-140.21-0.09l-0.08,0.13c1.81-17.86,16.99-31.79,35.43-31.79l104.87,0.07l89.1,0.07l0.09-0.13
		c-1.82,17.87-16.99,31.79-35.43,31.79h-0.19L677.33,211H677.9L677.9,211z"/>
	<path d="M680.78,729.91l-51.96,0.03c1.87,17.8,17,31.87,35.4,31.87l0,0l15.44,0.03l0.84,0.27h23.16l0.36,0.03l71.46,0.02
		l-0.05-0.21c-1.81-17.13-15.86-30.81-33.29-31.82l-38.19,0.05l-24.28-0.27H680.78L680.78,729.91z"/>
	<path d="M775.46,690.69l-155.97,0.03c1.88,17.8,17.01,31.87,35.4,31.87l0,0l88.34-0.08L775.46,690.69L775.46,690.69z"/>
	<polygon points="690.09,683.03 781.93,682.98 814.18,651.16 658.21,651.19 626.23,683.03 690.09,683.03 	"/>
	<path d="M667.43,611.6l-41.15,0.03c1.89,17.8,17.01,31.87,35.41,31.87l0,0h5.75l146.38,0.05l-0.04-0.21
		c-1.82-17.13-15.87-30.81-33.3-31.82l-112.91,0.05L667.43,611.6L667.43,611.6z"/>
	<path d="M700.6,769.29h88.13c18.02,0.4,32.82,14.05,34.71,31.58l-123.11-0.05h-25.03l-0.22,0.05
		c-18.01-0.4-32.67-14.05-34.56-31.58h59.81H700.6L700.6,769.29z"/>
	<path d="M762.71,808.53l-71.53,0.03c-18.41,0-33.56,13.89-35.48,31.69l107.02-0.05h25.24c18.4,0,33.55-13.89,35.48-31.69
		l-60.3,0.03H762.71L762.71,808.53z"/>
	<path d="M827.64,540.37l22.63-22.5l22.75-22.63l0.01-0.01c11.21,13.91,10.33,34.29-2.63,47.21l0,0l-20.34,20.25l-13.91,13.86
		l0.02-0.05c-13,12.93-33.52,13.78-47.5,2.55L827.64,540.37L827.64,540.37z"/>
	<path d="M949.35,186.31v-47.5v0.07c12.93,0,24.26,6.87,30.5,17.12L949.35,186.31L949.35,186.31z"/>
	<path d="M951.28,416.99l78.73-78.34l-0.04,0.04c11.31,13.93,10.46,34.39-2.54,47.32l-78.72,78.34l0.04-0.04
		C937.43,450.4,938.28,429.94,951.28,416.99L951.28,416.99L951.28,416.99z"/>
	<path d="M1018.73,339.64l-69.72,69.37l0.01-0.01c-11.32-13.9-10.48-34.36,2.53-47.31l69.73-69.39l-0.02,0.01
		C1032.6,306.24,1031.74,326.68,1018.73,339.64L1018.73,339.64L1018.73,339.64z"/>
	<path d="M910.09,346.95l0.25-0.24l87.21-86.77l33.95-33.8l0.16,0.07c11.23,13.91,10.35,34.28-2.63,47.18l-71.43,71.09l0.04-0.05
		C944.64,357.37,924.09,358.21,910.09,346.95L910.09,346.95L910.09,346.95z"/>
	<path d="M996.37,194.8l-50.42,50.17l0.03-0.01c-11.32-13.93-10.47-34.38,2.53-47.32l25.37-25.24l50.9-50.66l0.05-0.04
		c11.32,13.9,10.47,34.38-2.54,47.32l0,0L996.37,194.8L996.37,194.8z"/>
	<path d="M799.4,223.96v-44.79l0.09-0.09l71.99-71.62l-0.04,0.05c11.31,13.92,10.46,34.36-2.54,47.31L799.4,223.96L799.4,223.96z"/>
	<path d="M819.46,315.39c-11.2-13.91-10.32-34.31,2.63-47.2l0,0l50.44-50.22l22.39,22.3L819.46,315.39L819.46,315.39L819.46,315.39z
		"/>
	<path d="M802.62,387.29c-11.21-13.92-10.34-34.29,2.63-47.2l0,0l95.1-94.6l22.4,22.29L802.62,387.29L802.62,387.29L802.62,387.29z"
		/>
	<path d="M1030.81,171.27c11.29,13.91,10.45,34.36-2.56,47.3L767.34,478.25c-11.31-13.93-10.47-34.39,2.54-47.33L1030.81,171.27
		L1030.81,171.27L1030.81,171.27z"/>
	<path d="M826.46,141.86l-26.76,26.63v-37.65c1.28-0.17,2.55-0.24,3.88-0.24C812.89,130.6,820.99,135.19,826.46,141.86
		L826.46,141.86L826.46,141.86z"/>
	<path d="M872.21,384.71v-0.01c11.05,13.69,10.36,33.64-2.02,46.57c-0.2,0.21-2.53,2.54-2.74,2.74l0,0l-24.44,24.34l-33.51,33.34
		l-14.58,14.5l0.02-0.01c-12.98,12.92-33.51,13.77-47.5,2.57l40.33-40.03l31.49-31.33l28.06-27.92l24.86-24.75H872.21L872.21,384.71
		z"/>
	<path d="M797.91,514.26l24.16-24.04l28.07-27.92l22.75-22.63v-0.01c11.23,13.9,10.35,34.29-2.63,47.19l0,0l-24.42,24.34
		l-25.51,25.38l-3.45,3.43l0.01-0.02c-12.98,12.9-33.51,13.78-47.49,2.55l0,0l28.49-28.28L797.91,514.26L797.91,514.26z"/>
	<path d="M997.34,527.62l-84.27,83.85l-15.35,15.3l-14.57,14.5l0.03-0.02c-12.98,12.93-33.51,13.78-47.49,2.58l40.32-40.04
		l14.66-14.58l84.27-83.87l16.85-16.77l28.06-27.92l22.75-22.66h0.01c11.21,13.92,10.34,34.29-2.63,47.2l0,0l-24.44,24.34
		L997.34,527.62L997.34,527.62z"/>
	<path d="M894.49,574.85l46.9-46.65l-0.13-0.05c-14.02-11.24-34.59-10.39-47.59,2.57l0.04-0.04l-21.87,21.75l-28.39,28.25
		l-0.09,0.11l-27.43,27.27l0.13,0.05c14.01,11.25,34.59,10.4,47.6-2.55l2.3-2.29l23.53-23.41l4.95-4.95L894.49,574.85L894.49,574.85
		z"/>
	<path d="M837.59,197.14l18.04-17.95l-0.11,0.09l20.48-20.38l0,0c11.32,13.91,10.47,34.39-2.54,47.32l0,0l-13.37,13.3l-14.46,14.39
		l-4.3,4.27l-32.87,32.71c-11.32-13.93-10.47-34.37,2.53-47.32l0,0l12.13-12.07l0.11-0.09L837.59,197.14L837.59,197.14z"/>
	<polygon points="779.53,699.31 821.18,657.89 843.78,680.4 802.14,721.82 779.53,699.31 	"/>
	<path d="M893.4,686.6l-23.68,23.49l-14.58,14.5l0.04-0.02c-13,12.93-33.52,13.78-47.51,2.58l40.57-40.55H893.4L893.4,686.6z"/>
	<path d="M995.84,539.84l40.94-40.76l-0.01,0.03c11.31,13.91,10.46,34.37-2.54,47.3l0,0l-15.89,15.83l-69.8,69.44l-53.83,53.58
		l0.01-0.03c-11.32-13.91-10.47-34.37,2.54-47.3l28.83-28.6l69.6-69.28L995.84,539.84L995.84,539.84z"/>
	<path d="M849.53,741.14h0.01l55.86-55.61l33.95-33.76l0.15,0.05c11.21,13.92,10.34,34.29-2.63,47.2l-42.38,42.2L849.53,741.14
		L849.53,741.14z"/>
	<polygon points="897.2,748.96 927.64,718.68 927.66,763.38 897.23,793.5 897.2,748.96 	"/>
	<path d="M947.43,521.31l0.05-0.04c-11.31-13.91-10.47-34.37,2.53-47.32l92.39-91.83l0.08-0.07c11.32,13.91,10.47,34.36-2.54,47.3
		l-92.32,91.87L947.43,521.31L947.43,521.31z"/>
	<path d="M965.84,643.5h-18.21l31.01-30.84l0.13,0.13c7.08,7.02,7.08,18.41,0,25.46c-3.65,3.62-8.47,5.35-13.28,5.21L965.84,643.5
		L965.84,643.5z"/>
	<path d="M304.98,157.56L304.98,157.56c-14-11.29-34.59-10.47-47.61,2.49l0,0l22.51,22.4L304.98,157.56L304.98,157.56z"/>
	<path d="M384.25,134.58l-32.93,32.76L318.9,199.6L284,234.33l-42.54,42.32l0,0c-11.23-13.91-10.35-34.29,2.63-47.21l32.41-32.26
		l31.43-31.28l28.56-28.42l0.27-0.35l0,0c12.98-12.93,33.51-13.78,47.49-2.58V134.58L384.25,134.58z"/>
	<path d="M387.63,187.16l-24.44,24.34l-33.5,33.34l-14.57,14.5l0.03-0.03c-12.98,12.93-33.51,13.78-47.49,2.58l40.32-40.04
		l31.47-31.31l28.06-27.94l22.75-22.64l0,0C401.48,153.88,400.6,174.26,387.63,187.16L387.63,187.16L387.63,187.16z"/>
	<path d="M444.42,185.74l-58.2,57.92l-76.54,76.16l-0.04,0.05c-11.23-13.92-10.35-34.29,2.62-47.21l60.38-60.08l74.37-74l0.04-0.04
		C458.27,152.46,457.39,172.82,444.42,185.74L444.42,185.74L444.42,185.74z"/>
	<path d="M300.87,340.04l25.54-25.42l36.24-36.06l27.96-27.82l31.82-31.67l0.11,0.11c11.21,13.91,10.34,34.29-2.63,47.2l-17.8,17.72
		l-31.87,31.71l-21.82,21.71l0,0C335.42,350.44,314.87,351.29,300.87,340.04L300.87,340.04L300.87,340.04z"/>
	<path d="M422.04,274.61L444.55,297l-42.54,42.32l0.11-0.09c-12.98,12.93-33.51,13.78-47.5,2.57L422.04,274.61L422.04,274.61z"/>
	<path d="M500.36,352.51l-22.43-22.32l-19.45,19.34L388,419.67l0.05-0.04c13.88,11.29,33.77,11.03,46.04-1.17L500.36,352.51
		L500.36,352.51z"/>
	<path d="M472.71,324.77l-22.44-22.32l-19.44,19.34l-70.48,70.13l0.05-0.04c13.86,11.28,33.78,11.03,46.03-1.17L472.71,324.77
		L472.71,324.77z"/>
	<path d="M253.59,431.75l-22.51-22.39v-0.05c13.01-12.96,33.58-13.81,47.59-2.57L253.59,431.75L253.59,431.75z"/>
	<path d="M267.59,473.28l-30.62,30.48l-27.47,27.34l0.01-0.03c-11.3-13.94-10.43-34.4,2.58-47.36l-0.36,0.36l33.35-33.19l4.31-4.29
		l52.85-52.58l27.47-27.34l-0.01,0.01c11.29,13.95,10.44,34.41-2.58,47.37l-43.15,42.94L267.59,473.28L267.59,473.28z"/>
	<path d="M348.71,448.49l-71.78,71.42l-63.16,62.84l-0.05-0.13c-11.31-13.94-10.44-34.43,2.57-47.36l71.74-71.4l63.16-62.83
		l0.05,0.12c11.3,13.95,10.43,34.43-2.58,47.37L348.71,448.49L348.71,448.49z"/>
	<path d="M295.9,510.47c-13.03,12.95-13.88,33.41-2.58,47.36l0.08,0.11l101.23-100.73l-45.31,0.11L295.9,510.47L295.9,510.47
		L295.9,510.47z"/>
	<path d="M323.17,583.42c-13.02,12.96-33.59,13.81-47.61,2.55h0.03l44.22-44l49.68-49.43l35.39-35.21l45.31-0.11l-68.31,67.98
		l-58.29,58.01L323.17,583.42L323.17,583.42L323.17,583.42z"/>
	<path d="M554.71,571.96l-61.73,61.46l-0.02,0.02c-11.31-13.91-10.47-34.37,2.53-47.3l14.23-14.18H554.71L554.71,571.96z"/>
	<path d="M443.32,693.3l-122.6,121.91c13.97,11.25,34.67,10.59,47.68-2.37l0,0L488.55,693.3H443.32L443.32,693.3z"/>
	<path d="M349.15,665.15l-22.51-22.4v-0.05c13.02-12.96,33.59-13.81,47.6-2.56L349.15,665.15L349.15,665.15z"/>
	<path d="M437.06,633.31l-71.78,71.43l-63.16,62.84l-0.05-0.13c-11.31-13.94-10.44-34.4,2.57-47.36l71.74-71.38l63.16-62.84
		l0.05,0.11c11.31,13.97,10.44,34.43-2.58,47.39L437.06,633.31L437.06,633.31z"/>
	<path d="M436.5,689.47c12.45-12.98,13.12-32.94,1.98-46.67l-21.92,21.82l-63.04,62.73c-13.01,12.96-13.86,33.42-2.58,47.36
		l0.08,0.11l68.72-68.38l16.52-16.41L436.5,689.47L436.5,689.47L436.5,689.47z"/>
	<path d="M626.04,723.39l-22.4-22.27l-36.46,36.21l-70.49,70.11h0.05c13.88,11.28,33.78,11.01,46.04-1.2L626.04,723.39
		L626.04,723.39z"/>
	<path d="M593.76,766.25l-39.5,39.3h0.05c13.88,11.25,33.78,10.99,46.04-1.2l15.84-15.78l20.33-20.22l-22.4-22.3l-20.24,20.11
		L593.76,766.25L593.76,766.25z"/>
	<path d="M564.2,574.16l22.51,22.4l-84.27,83.83l-0.01,0.02c-11.32-13.91-10.47-34.37,2.53-47.3L564.2,574.16L564.2,574.16z"/>
	<path d="M459.71,778.41c-13,12.93-33.58,13.78-47.54,2.53l0.31-0.13l179.66-178.76l22.42,22.29L459.71,778.41L459.71,778.41
		L459.71,778.41z"/>
	<path d="M465.36,828.56c-13,12.96-33.56,13.78-47.56,2.53l0.32-0.13l201.96-201l22.41,22.3L465.36,828.56L465.36,828.56
		L465.36,828.56z"/>
</g>
</svg>
